<?xml version="1.0" encoding="UTF-8"?>
<svg version="1.1" xmlns="http://www.w3.org/2000/svg" width="64" height="64">
<path d="M0 0 C21.12 0 42.24 0 64 0 C64 21.12 64 42.24 64 64 C42.88 64 21.76 64 0 64 C0 42.88 0 21.76 0 0 Z " fill="#BB8086" transform="translate(0,0)"/>
<path d="M0 0 C0.12117188 0.66386719 0.24234375 1.32773438 0.3671875 2.01171875 C1.22547708 6.53424459 2.03971311 10.79938524 4 15 C4.66 15 5.32 15 6 15 C6 15.66 6 16.32 6 17 C3.36 16.34 0.72 15.68 -2 15 C-2 16.32 -2 17.64 -2 19 C-1.01 19.33 -0.02 19.66 1 20 C0.01 20.33 -0.98 20.66 -2 21 C-2 22.32 -2 23.64 -2 25 C-0.35 25 1.3 25 3 25 C3 23.68 3 22.36 3 21 C3.99 21 4.98 21 6 21 C6.144375 21.78375 6.28875 22.5675 6.4375 23.375 C6.87798925 25.96421018 6.87798925 25.96421018 8 28 C8.06996014 29.70702735 8.08440154 31.41668003 8.0625 33.125 C8.05347656 34.03507812 8.04445313 34.94515625 8.03515625 35.8828125 C8.02355469 36.58148438 8.01195313 37.28015625 8 38 C8.33 36.02 8.66 34.04 9 32 C10.98 31.505 10.98 31.505 13 31 C13.33 29.68 13.66 28.36 14 27 C16.6875 26.6875 16.6875 26.6875 20 27 C22.75 29.375 22.75 29.375 25 32 C25.66 32.66 26.32 33.32 27 34 C26.875 37.5 26.875 37.5 26 41 C23.71922308 42.87349533 22.43495972 43.01087399 19.5 42.9375 C16.92856033 42.73638678 16.92856033 42.73638678 15.25 44.51953125 C12.14126257 46.5650373 10.15603881 46.13572887 6.5 45.75 C5.3759375 45.64171875 4.251875 45.5334375 3.09375 45.421875 C-2.07692308 44.71678322 -2.07692308 44.71678322 -4 44 C-6 41 -6 41 -6 38 C-6.763125 37.9175 -7.52625 37.835 -8.3125 37.75 C-11 37 -11 37 -12.75 35.25 C-14.152764 32.72502481 -14.78376681 30.88310915 -15 28 C-14.0625 25.6875 -14.0625 25.6875 -13 24 C-13.515625 23.401875 -14.03125 22.80375 -14.5625 22.1875 C-15.036875 21.465625 -15.51125 20.74375 -16 20 C-15.505 18.515 -15.505 18.515 -15 17 C-15.185625 15.989375 -15.37125 14.97875 -15.5625 13.9375 C-15.706875 12.968125 -15.85125 11.99875 -16 11 C-15.34 10.34 -14.68 9.68 -14 9 C-13.01 9 -12.02 9 -11 9 C-10.87625 8.071875 -10.7525 7.14375 -10.625 6.1875 C-10 3 -10 3 -8 0 C-4.71023192 -1.09658936 -3.28696233 -0.79953138 0 0 Z " fill="#F3C0CC" transform="translate(25,12)"/>
<path d="M0 0 C21.12 0 42.24 0 64 0 C64 21.12 64 42.24 64 64 C42.88 64 21.76 64 0 64 C0 42.88 0 21.76 0 0 Z M3 3 C3 4.98 3 6.96 3 9 C3.99 9 4.98 9 6 9 C6 9.99 6 10.98 6 12 C5.01 12 4.02 12 3 12 C3 25.2 3 38.4 3 52 C3.99 52 4.98 52 6 52 C6 52.99 6 53.98 6 55 C5.01 55 4.02 55 3 55 C3 56.98 3 58.96 3 61 C4.98 61 6.96 61 9 61 C9 60.01 9 59.02 9 58 C9.99 58 10.98 58 12 58 C12 58.99 12 59.98 12 61 C25.2 61 38.4 61 52 61 C52 60.01 52 59.02 52 58 C52.99 58 53.98 58 55 58 C55 58.99 55 59.98 55 61 C56.98 61 58.96 61 61 61 C61 59.02 61 57.04 61 55 C60.01 55 59.02 55 58 55 C58 54.01 58 53.02 58 52 C58.99 52 59.98 52 61 52 C61 38.8 61 25.6 61 12 C60.01 12 59.02 12 58 12 C58 11.01 58 10.02 58 9 C58.99 9 59.98 9 61 9 C61 7.02 61 5.04 61 3 C59.02 3 57.04 3 55 3 C55 3.99 55 4.98 55 6 C54.01 6 53.02 6 52 6 C52 5.01 52 4.02 52 3 C38.8 3 25.6 3 12 3 C12 3.99 12 4.98 12 6 C11.01 6 10.02 6 9 6 C9 5.01 9 4.02 9 3 C7.02 3 5.04 3 3 3 Z " fill="#3E2826" transform="translate(0,0)"/>
<path d="M0 0 C13.2 0 26.4 0 40 0 C40 0.99 40 1.98 40 3 C40.99 3 41.98 3 43 3 C43 2.01 43 1.02 43 0 C44.98 0 46.96 0 49 0 C49 1.98 49 3.96 49 6 C48.01 6 47.02 6 46 6 C46 6.99 46 7.98 46 9 C46.99 9 47.98 9 49 9 C49 22.2 49 35.4 49 49 C47.68 49 46.36 49 45 49 C44.505 49.99 44.505 49.99 44 51 C42.80611597 19.67959553 42.80611597 19.67959553 43 6 C41.33710937 6.05220703 41.33710937 6.05220703 39.640625 6.10546875 C38.17709852 6.13361349 36.71355561 6.16091292 35.25 6.1875 C34.15558594 6.22520508 34.15558594 6.22520508 33.0390625 6.26367188 C28.59854509 6.32422439 26.31426422 5.94601264 23 3 C19.83267579 2.74913276 19.83267579 2.74913276 17 3 C16.67 3.99 16.34 4.98 16 6 C9.73 6 3.46 6 -3 6 C-3 5.01 -3 4.02 -3 3 C-2.01 3 -1.02 3 0 3 C0 2.01 0 1.02 0 0 Z " fill="#D2A58C" transform="translate(12,3)"/>
<path d="M0 0 C2.6875 -0.3125 2.6875 -0.3125 6 0 C8.75 2.375 8.75 2.375 11 5 C11.66 5.66 12.32 6.32 13 7 C12.875 10.5 12.875 10.5 12 14 C9.71922308 15.87349533 8.43495972 16.01087399 5.5 15.9375 C2.92856033 15.73638678 2.92856033 15.73638678 1.25 17.51953125 C-1.85873743 19.5650373 -3.84396119 19.13572887 -7.5 18.75 C-8.6240625 18.64171875 -9.748125 18.5334375 -10.90625 18.421875 C-13.35135268 18.08845191 -15.63178823 17.67331511 -18 17 C-19 10.125 -19 10.125 -19 9 C-20.65 9 -22.3 9 -24 9 C-25.76462683 5.91190305 -26 4.76687864 -26 1 C-23.69 1 -21.38 1 -19 1 C-18.67 1.99 -18.34 2.98 -18 4 C-15.50240018 5.69882448 -15.50240018 5.69882448 -13 7 C-12.34 6.34 -11.68 5.68 -11 5 C-11 5.66 -11 6.32 -11 7 C-10.360625 7.28875 -9.72125 7.5775 -9.0625 7.875 C-7 9 -7 9 -6 11 C-5.67 9.02 -5.34 7.04 -5 5 C-3.68 4.67 -2.36 4.34 -1 4 C-0.67 2.68 -0.34 1.36 0 0 Z " fill="#F0C8CC" transform="translate(39,39)"/>
<path d="M0 0 C2 2 2 2 2.22705078 4.15478516 C2.21657715 5.02409668 2.20610352 5.8934082 2.1953125 6.7890625 C2.18886719 7.73007812 2.18242187 8.67109375 2.17578125 9.640625 C2.15902344 10.62546875 2.14226563 11.6103125 2.125 12.625 C2.11597656 13.61757813 2.10695313 14.61015625 2.09765625 15.6328125 C2.07404116 18.08878134 2.04110799 20.54427168 2 23 C2.7314624 22.9896875 3.4629248 22.979375 4.21655273 22.96875 C12.07106638 22.8741974 19.83637357 23.19649314 27.5625 24.6875 C31.53997928 25.04908903 34.68953168 24.36106236 38.5546875 23.48046875 C41.78272529 22.84620573 44.72171789 22.857466 48 23 C48 23.99 48 24.98 48 26 C47.01 26 46.02 26 45 26 C45 26.99 45 27.98 45 29 C31.8 29 18.6 29 5 29 C5 28.01 5 27.02 5 26 C4.01 26 3.02 26 2 26 C2 26.99 2 27.98 2 29 C0.02 29 -1.96 29 -4 29 C-4 27.02 -4 25.04 -4 23 C-3.01 23 -2.02 23 -1 23 C-1 21.68 -1 20.36 -1 19 C-1.66 19 -2.32 19 -3 19 C-3 14.05 -3 9.1 -3 4 C-2.34 3.67 -1.68 3.34 -1 3 C-0.67 2.01 -0.34 1.02 0 0 Z " fill="#B58A77" transform="translate(7,32)"/>
<path d="M0 0 C1.98 0 3.96 0 6 0 C6.02505615 0.6705542 6.0501123 1.3411084 6.07592773 2.03198242 C6.19230801 5.0839959 6.31484348 8.13573258 6.4375 11.1875 C6.47681641 12.24259766 6.51613281 13.29769531 6.55664062 14.38476562 C6.59853516 15.40634766 6.64042969 16.42792969 6.68359375 17.48046875 C6.72025146 18.41785889 6.75690918 19.35524902 6.79467773 20.32104492 C6.99635726 22.95247117 7.47069745 25.41806917 8 28 C8 28.99 8 29.98 8 31 C8.66 31.99 9.32 32.98 10 34 C9.34 34 8.68 34 8 34 C8.36339259 40.67195443 8.36339259 40.67195443 12 46 C13.0209375 46.185625 13.0209375 46.185625 14.0625 46.375 C14.701875 46.58125 15.34125 46.7875 16 47 C17.25 50.0625 17.25 50.0625 18 53 C14.04 52.67 10.08 52.34 6 52 C5.67 45.07 5.34 38.14 5 31 C3.02 31.99 3.02 31.99 1 33 C1 37.95 1 42.9 1 48 C1.66 48.33 2.32 48.66 3 49 C2.01 49 1.02 49 0 49 C0 35.8 0 22.6 0 9 C0.99 9 1.98 9 3 9 C3 8.01 3 7.02 3 6 C2.01 6 1.02 6 0 6 C0 4.02 0 2.04 0 0 Z " fill="#D5A88E" transform="translate(3,3)"/>
<path d="M0 0 C0.66 0 1.32 0 2 0 C2 17.82 2 35.64 2 54 C-13.84 54 -29.68 54 -46 54 C-46 53.34 -46 52.68 -46 52 C-34.12 52 -22.24 52 -10 52 C-10 50.68 -10 49.36 -10 48 C-9.01 48 -8.02 48 -7 48 C-7 48.99 -7 49.98 -7 51 C-5.02 51 -3.04 51 -1 51 C-1 49.02 -1 47.04 -1 45 C-1.99 45 -2.98 45 -4 45 C-4 44.01 -4 43.02 -4 42 C-2.68 42 -1.36 42 0 42 C0 28.14 0 14.28 0 0 Z " fill="#3A2524" transform="translate(62,10)"/>
<path d="M0 0 C3.27544984 4.06554664 3.37468131 7.79700071 3.1875 12.8125 C3.16719727 13.85180664 3.16719727 13.85180664 3.14648438 14.91210938 C3.11138845 16.60841265 3.05758943 18.30431136 3 20 C1.140625 20.61328125 1.140625 20.61328125 -1 21 C-3.25 19.1875 -3.25 19.1875 -5 17 C-5 16.34 -5 15.68 -5 15 C-5.99 15 -6.98 15 -8 15 C-7.67 12.69 -7.34 10.38 -7 8 C-8.98 7.34 -10.96 6.68 -13 6 C-13.33 9.3 -13.66 12.6 -14 16 C-14.66 15.67 -15.32 15.34 -16 15 C-16.77970297 7.0470297 -16.77970297 7.0470297 -13.8125 3.0625 C-9.06732759 -0.4172931 -5.81347261 -1.89569759 0 0 Z " fill="#FAE4E8" transform="translate(52,21)"/>
<path d="M0 0 C3.14529096 1.5011616 5.87956006 3.33907254 8.75 5.3125 C9.69875 5.84875 10.6475 6.385 11.625 6.9375 C12.32625 7.39125 13.0275 7.845 13.75 8.3125 C13.75 8.9725 13.75 9.6325 13.75 10.3125 C11.77 10.6425 9.79 10.9725 7.75 11.3125 C7.75 11.9725 7.75 12.6325 7.75 13.3125 C3.69568308 14.47087626 1.53187881 14.14941257 -2.25 12.3125 C-2.25 12.9725 -2.25 13.6325 -2.25 14.3125 C-3.24 14.6425 -4.23 14.9725 -5.25 15.3125 C-5.91 14.9825 -6.57 14.6525 -7.25 14.3125 C-8.42026833 9.38065488 -8.83613003 7.42412591 -6.4375 2.875 C-3.15918861 -0.96530763 -3.15918861 -0.96530763 0 0 Z " fill="#F8DDE2" transform="translate(34.25,6.6875)"/>
<path d="M0 0 C2.31 0.33 4.62 0.66 7 1 C6.34 3.64 5.68 6.28 5 9 C5.99 9 6.98 9 8 9 C10.1875 10.875 10.1875 10.875 12 13 C12 13.66 12 14.32 12 15 C12.99 15.33 13.98 15.66 15 16 C11 16 11 16 8.625 14.5625 C5.70362843 12.82358835 3.3505007 12.3895931 0 12 C-0.33 13.65 -0.66 15.3 -1 17 C-1.99 17.33 -2.98 17.66 -4 18 C-4.80212628 19.87387216 -4.80212628 19.87387216 -5.1875 22.0625 C-5.34605469 22.79597656 -5.50460938 23.52945313 -5.66796875 24.28515625 C-5.77753906 24.85105469 -5.88710938 25.41695312 -6 26 C-7.00109515 22.68929162 -7.10356134 19.69915231 -7.0625 16.25 C-7.05347656 15.26515625 -7.04445313 14.2803125 -7.03515625 13.265625 C-7.02355469 12.51796875 -7.01195312 11.7703125 -7 11 C-7.66 10.67 -8.32 10.34 -9 10 C-8.67 8.68 -8.34 7.36 -8 6 C-8.66 6 -9.32 6 -10 6 C-10 5.34 -10 4.68 -10 4 C-6.25 2.875 -6.25 2.875 -4 4 C-4 5.98 -4 7.96 -4 10 C-3.01 10 -2.02 10 -1 10 C-0.67 6.7 -0.34 3.4 0 0 Z " fill="#C87886" transform="translate(39,27)"/>
<path d="M0 0 C0.2493357 1.60115576 0.47378648 3.20620159 0.6875 4.8125 C0.81511719 5.70582031 0.94273438 6.59914063 1.07421875 7.51953125 C1 10 1 10 -0.29296875 11.76171875 C-2 13 -2 13 -5 14 C-5 14.99 -5 15.98 -5 17 C-5.66 17 -6.32 17 -7 17 C-6.67 19.31 -6.34 21.62 -6 24 C-8.31 23.67 -10.62 23.34 -13 23 C-13 22.01 -13 21.02 -13 20 C-13.19864555 18.64437834 -13.40755135 17.29023287 -13.625 15.9375 C-13.74875 14.638125 -13.8725 13.33875 -14 12 C-13.34 11.34 -12.68 10.68 -12 10 C-11.01 10 -10.02 10 -9 10 C-8.87625 9.071875 -8.7525 8.14375 -8.625 7.1875 C-8 4 -8 4 -6 1 C-3 0 -3 0 0 0 Z " fill="#F7D8D9" transform="translate(23,11)"/>
<path d="M0 0 C0.33 0 0.66 0 1 0 C1 13.2 1 26.4 1 40 C1.99 40 2.98 40 4 40 C4 40.99 4 41.98 4 43 C3.01 43 2.02 43 1 43 C1 44.98 1 46.96 1 49 C2.98 49 4.96 49 7 49 C7 48.01 7 47.02 7 46 C7.99 46 8.98 46 10 46 C10 46.99 10 47.98 10 49 C23.2 49 36.4 49 50 49 C50 49.33 50 49.66 50 50 C38.12 50 26.24 50 14 50 C14 50.66 14 51.32 14 52 C8.72 52 3.44 52 -2 52 C-2 47.71 -2 43.42 -2 39 C-1.34 39 -0.68 39 0 39 C0 26.13 0 13.26 0 0 Z " fill="#4B3330" transform="translate(2,12)"/>
<path d="M0 0 C2.31 0 4.62 0 7 0 C7.33 0.99 7.66 1.98 8 3 C10.49759982 4.69882448 10.49759982 4.69882448 13 6 C13.66 5.34 14.32 4.68 15 4 C15 4.66 15 5.32 15 6 C16.32 6.66 17.64 7.32 19 8 C18.125 15.875 18.125 15.875 17 17 C15.47480724 16.91062197 13.95318071 16.75462854 12.4375 16.5625 C11.61121094 16.46066406 10.78492188 16.35882813 9.93359375 16.25390625 C9.29550781 16.17011719 8.65742188 16.08632813 8 16 C7 9.125 7 9.125 7 8 C5.35 8 3.7 8 2 8 C0.23537317 4.91190305 0 3.76687864 0 0 Z " fill="#FBE1E1" transform="translate(13,40)"/>
<path d="M0 0 C4.53419335 -0.09446236 8.94085854 -0.08105602 13.4375 0.5625 C16.83484329 1.31295411 16.83484329 1.31295411 19 0 C21.10633718 1.70828921 21.93801608 2.52148416 22.29296875 5.26171875 C22.25816406 6.06222656 22.22335938 6.86273438 22.1875 7.6875 C22.16042969 8.49574219 22.13335937 9.30398437 22.10546875 10.13671875 C22.05326172 11.05904297 22.05326172 11.05904297 22 12 C21.0925 11.484375 20.185 10.96875 19.25 10.4375 C16.22210089 8.76123652 16.22210089 8.76123652 13.625 9.3125 C13.08875 9.539375 12.5525 9.76625 12 10 C12 9.01 12 8.02 12 7 C11.01 6.67 10.02 6.34 9 6 C8.67 5.34 8.34 4.68 8 4 C4.97065509 3.34227572 4.97065509 3.34227572 2 3 C2.66 5.64 3.32 8.28 4 11 C7.465 10.505 7.465 10.505 11 10 C10.34 11.98 9.68 13.96 9 16 C8.67 15.01 8.34 14.02 8 13 C7.236875 12.9175 6.47375 12.835 5.6875 12.75 C3 12 3 12 1.25 10.25 C-0.13202816 7.76234931 -0.71006039 5.82691117 -1 3 C-0.67 2.01 -0.34 1.02 0 0 Z " fill="#EAA5BA" transform="translate(11,37)"/>
<path d="M0 0 C0 0.99 0 1.98 0 3 C-0.99 3 -1.98 3 -3 3 C-3 3.99 -3 4.98 -3 6 C-16.2 6 -29.4 6 -43 6 C-42.67 5.01 -42.34 4.02 -42 3 C-42 3.66 -42 4.32 -42 5 C-39.36 5 -36.72 5 -34 5 C-34 3.68 -34 2.36 -34 1 C-24.92071611 0.83558641 -24.92071611 0.83558641 -20.5 1.625 C-16.46748977 2.05705467 -13.36510935 1.37351115 -9.4453125 0.48046875 C-6.21727471 -0.15379427 -3.27828211 -0.142534 0 0 Z " fill="#C39383" transform="translate(55,55)"/>
<path d="M0 0 C0 3 0 3 -0.5625 6.3125 C-0.98426087 9.86734159 -0.76220752 12.52772132 0 16 C-2.86299506 13.13700494 -2.99421225 11.34147716 -3.0625 7.3125 C-3.041875 6.219375 -3.02125 5.12625 -3 4 C-5.64 4.33 -8.28 4.66 -11 5 C-11.15855469 5.55429688 -11.31710938 6.10859375 -11.48046875 6.6796875 C-11.71378906 7.40414063 -11.94710938 8.12859375 -12.1875 8.875 C-12.40792969 9.59429687 -12.62835937 10.31359375 -12.85546875 11.0546875 C-14 13 -14 13 -19 15 C-19 10.38 -19 5.76 -19 1 C-12.73 0.67 -6.46 0.34 0 0 Z " fill="#7E5558" transform="translate(28,8)"/>
<path d="M0 0 C1.65 1.65 3.3 3.3 5 5 C4.34 5 3.68 5 3 5 C3.36339259 11.67195443 3.36339259 11.67195443 7 17 C7.680625 17.12375 8.36125 17.2475 9.0625 17.375 C9.701875 17.58125 10.34125 17.7875 11 18 C12.25 21.0625 12.25 21.0625 13 24 C9.04 23.67 5.08 23.34 1 23 C0.67 15.41 0.34 7.82 0 0 Z " fill="#855759" transform="translate(8,32)"/>
<path d="M0 0 C2.31 0.33 4.62 0.66 7 1 C6.34 3.64 5.68 6.28 5 9 C5.99 9 6.98 9 8 9 C10.1875 10.875 10.1875 10.875 12 13 C12 13.66 12 14.32 12 15 C12.99 15.33 13.98 15.66 15 16 C13.68 16 12.36 16 11 16 C10.4225 15.360625 9.845 14.72125 9.25 14.0625 C5.98580243 11.07031889 3.36082259 11.29072151 -1 11 C-0.67 7.37 -0.34 3.74 0 0 Z " fill="#EBD2AC" transform="translate(39,27)"/>
<path d="M0 0 C0.66 0.66 1.32 1.32 2 2 C4.73434962 2.3063859 7.38279821 2.5113336 10.125 2.625 C10.87910156 2.66367188 11.63320313 2.70234375 12.41015625 2.7421875 C14.27303184 2.83651031 16.13648255 2.91934662 18 3 C18 6.96 18 10.92 18 15 C17.34 15 16.68 15 16 15 C16 12.03 16 9.06 16 6 C13.52733235 6.34444881 13.52733235 6.34444881 11 7 C10.67 7.66 10.34 8.32 10 9 C8.58124235 8.23302204 7.16508548 7.46123222 5.75 6.6875 C4.96109375 6.25824219 4.1721875 5.82898438 3.359375 5.38671875 C1 4 1 4 -1.125 2.3125 C-2.9988823 0.69240155 -2.9988823 0.69240155 -5.75 1.3125 C-6.4925 1.539375 -7.235 1.76625 -8 2 C-8 1.34 -8 0.68 -8 0 C-5.09288879 -1.4535556 -3.10402897 -0.71133997 0 0 Z " fill="#795055" transform="translate(37,6)"/>
<path d="M0 0 C4.95 0 9.9 0 15 0 C15 1.65 15 3.3 15 5 C8.73 5 2.46 5 -4 5 C-4 4.01 -4 3.02 -4 2 C-2.68 2 -1.36 2 0 2 C0 1.34 0 0.68 0 0 Z " fill="#D8AB91" transform="translate(13,4)"/>
<path d="M0 0 C0.2493357 1.60115576 0.47378648 3.20620159 0.6875 4.8125 C0.81511719 5.70582031 0.94273438 6.59914063 1.07421875 7.51953125 C1 10 1 10 -0.34375 11.78125 C-2.21326678 13.15693216 -3.72740492 13.60817326 -6 14 C-8.09429461 10.59677126 -8.33706208 7.96047946 -8 4 C-5.52914451 0.29371676 -4.37054922 0 0 0 Z " fill="#FBE4E7" transform="translate(23,11)"/>
<path d="M0 0 C0.721875 0.268125 1.44375 0.53625 2.1875 0.8125 C2.1875 1.8025 2.1875 2.7925 2.1875 3.8125 C2.8475 4.1425 3.5075 4.4725 4.1875 4.8125 C5 7.1875 5 7.1875 5.1875 9.8125 C3.75 11.625 3.75 11.625 2.1875 12.8125 C1.5275 12.4825 0.8675 12.1525 0.1875 11.8125 C0.5175 10.1625 0.8475 8.5125 1.1875 6.8125 C-0.7925 6.1525 -2.7725 5.4925 -4.8125 4.8125 C-5.1425 8.1125 -5.4725 11.4125 -5.8125 14.8125 C-6.4725 14.4825 -7.1325 14.1525 -7.8125 13.8125 C-8.29361056 8.90517226 -8.53051755 5.83823936 -5.625 1.6875 C-2.8125 -0.1875 -2.8125 -0.1875 0 0 Z " fill="#EEDFAE" transform="translate(43.8125,22.1875)"/>
<path d="M0 0 C2.46800047 1.15173355 4.04783565 2.04783565 6 4 C5.625 7.125 5.625 7.125 5 10 C2.69 10.33 0.38 10.66 -2 11 C-2.12375 10.360625 -2.2475 9.72125 -2.375 9.0625 C-2.58125 8.381875 -2.7875 7.70125 -3 7 C-3.66 6.67 -4.32 6.34 -5 6 C-4.34 5.01 -3.68 4.02 -3 3 C-2.34 3 -1.68 3 -1 3 C-0.67 2.01 -0.34 1.02 0 0 Z " fill="#FBE7EA" transform="translate(46,42)"/>
<path d="M0 0 C2.67431931 -0.07640912 5.00035737 0.00007658 7.625 0.5625 C10.13648666 1.22276055 10.13648666 1.22276055 13 0 C13.33 3.3 13.66 6.6 14 10 C13.34 10 12.68 10 12 10 C12 8.02 12 6.04 12 4 C10.02 4 8.04 4 6 4 C5.67 5.98 5.34 7.96 5 10 C3.35 10 1.7 10 0 10 C0 8.68 0 7.36 0 6 C0.66 5.67 1.32 5.34 2 5 C1.34 4.67 0.68 4.34 0 4 C0 2.68 0 1.36 0 0 Z " fill="#D89A8D" transform="translate(23,27)"/>
<path d="M0 0 C0.66 0 1.32 0 2 0 C2.33 3.63 2.66 7.26 3 11 C1.68 11.33 0.36 11.66 -1 12 C-3.25 10.1875 -3.25 10.1875 -5 8 C-5 7.34 -5 6.68 -5 6 C-5.99 5.67 -6.98 5.34 -8 5 C-4.93882432 2.37613513 -4.26826873 2 0 2 C0 1.34 0 0.68 0 0 Z " fill="#F7D9DE" transform="translate(52,30)"/>
<path d="M0 0 C0.33 0 0.66 0 1 0 C1 7.26 1 14.52 1 22 C-0.32 21.01 -1.64 20.02 -3 19 C-3.29642569 16.28770497 -3.38061189 14.00260268 -3.25 11.3125 C-3.23195312 10.61060547 -3.21390625 9.90871094 -3.1953125 9.18554688 C-3.14826213 7.45644564 -3.07651873 5.72804795 -3 4 C-2.34 3.67 -1.68 3.34 -1 3 C-0.67 2.01 -0.34 1.02 0 0 Z " fill="#DCAD91" transform="translate(7,32)"/>
<path d="M0 0 C0.86625 0.7115625 0.86625 0.7115625 1.75 1.4375 C4.12150978 3.28123634 4.12150978 3.28123634 8 4 C8 7.63 8 11.26 8 15 C3.05 15.66 -1.9 16.32 -7 17 C-5 14 -5 14 -2.8359375 13.48828125 C-2.02382813 13.43027344 -1.21171875 13.37226562 -0.375 13.3125 C0.44226562 13.24675781 1.25953125 13.18101563 2.1015625 13.11328125 C2.72804688 13.07589844 3.35453125 13.03851563 4 13 C4.33417929 9.6675213 4.33417929 9.6675213 4 6 C2.10415891 3.68622853 2.10415891 3.68622853 0 2 C0 1.34 0 0.68 0 0 Z " fill="#7A4E55" transform="translate(47,40)"/>
<path d="M0 0 C0.33 0.99 0.66 1.98 1 3 C1.66 3 2.32 3 3 3 C3 4.32 3 5.64 3 7 C2.34 7 1.68 7 1 7 C1 20.86 1 34.72 1 49 C0.67 49 0.34 49 0 49 C0 35.8 0 22.6 0 9 C-0.99 9 -1.98 9 -3 9 C-3 8.01 -3 7.02 -3 6 C-2.01 6 -1.02 6 0 6 C0 4.02 0 2.04 0 0 Z " fill="#49322E" transform="translate(61,3)"/>
<path d="M0 0 C0.33 0 0.66 0 1 0 C1 13.2 1 26.4 1 40 C1.99 40 2.98 40 4 40 C4 40.99 4 41.98 4 43 C3.01 43 2.02 43 1 43 C1 44.98 1 46.96 1 49 C0.67 49 0.34 49 0 49 C0 47.02 0 45.04 0 43 C-0.66 43 -1.32 43 -2 43 C-2 41.68 -2 40.36 -2 39 C-1.34 39 -0.68 39 0 39 C0 26.13 0 13.26 0 0 Z " fill="#49312D" transform="translate(2,12)"/>
<path d="M0 0 C1.98 0 3.96 0 6 0 C6.02505615 0.6705542 6.0501123 1.3411084 6.07592773 2.03198242 C6.19230801 5.0839959 6.31484348 8.13573258 6.4375 11.1875 C6.47681641 12.24259766 6.51613281 13.29769531 6.55664062 14.38476562 C6.59853516 15.40634766 6.64042969 16.42792969 6.68359375 17.48046875 C6.72025146 18.41785889 6.75690918 19.35524902 6.79467773 20.32104492 C6.99625599 22.95114982 7.42678321 25.42766414 8 28 C7.34 28.33 6.68 28.66 6 29 C4.72981884 23.51705133 4.58946878 18.00141457 4.28125 12.3984375 C4.13625669 9.0139265 4.13625669 9.0139265 3 6 C2.01 6 1.02 6 0 6 C0 4.02 0 2.04 0 0 Z " fill="#A7776F" transform="translate(3,3)"/>
<path d="M0 0 C1.98 0 3.96 0 6 0 C6 2.97 6 5.94 6 9 C6.66 9 7.32 9 8 9 C8.33 11.97 8.66 14.94 9 18 C7 14 7 14 6.25 11.875 C4.40347545 9.10521317 2.12489677 8.81519046 -1 8 C-0.835 6.865625 -0.67 5.73125 -0.5 4.5625 C-0.14367797 2.28867481 -0.14367797 2.28867481 0 0 Z " fill="#8B5661" transform="translate(47,12)"/>
<path d="M0 0 C0.99 0.495 0.99 0.495 2 1 C2 2.65 2 4.3 2 6 C3.32 6.33 4.64 6.66 6 7 C5.34 7 4.68 7 4 7 C4 8.32 4 9.64 4 11 C5.65 11 7.3 11 9 11 C9 9.68 9 8.36 9 7 C9.99 7 10.98 7 12 7 C12 8.32 12 9.64 12 11 C11.34 11 10.68 11 10 11 C9.67 11.66 9.34 12.32 9 13 C1.125 12.125 1.125 12.125 0 11 C-0.07226502 9.14712498 -0.0838122 7.29166122 -0.0625 5.4375 C-0.05347656 4.42558594 -0.04445313 3.41367187 -0.03515625 2.37109375 C-0.02355469 1.58863281 -0.01195313 0.80617188 0 0 Z " fill="#E7D697" transform="translate(19,26)"/>
<path d="M0 0 C2.875 0.25 2.875 0.25 6 1 C7.375 3.0625 7.375 3.0625 8 5 C6.02 5.33 4.04 5.66 2 6 C2 6.66 2 7.32 2 8 C1.01 8.33 0.02 8.66 -1 9 C-2 8 -2 8 -2.1875 5.625 C-2 3 -2 3 0 0 Z " fill="#FAE5E8" transform="translate(40,12)"/>
<path d="M0 0 C0 0.99 0 1.98 0 3 C-1.32 3 -2.64 3 -4 3 C-4 3.66 -4 4.32 -4 5 C-7.63 5 -11.26 5 -15 5 C-12 1 -12 1 -9.75 0.25 C-6.4867772 -0.04665662 -3.27479788 -0.06421172 0 0 Z " fill="#D8AC92" transform="translate(55,55)"/>
<path d="M0 0 C2.31 0 4.62 0 7 0 C7.66 1.98 8.32 3.96 9 6 C8.34 6 7.68 6 7 6 C7 6.66 7 7.32 7 8 C5.35 8 3.7 8 2 8 C0.23537317 4.91190305 0 3.76687864 0 0 Z " fill="#FEE7EA" transform="translate(13,40)"/>
<path d="M0 0 C3.63 0 7.26 0 11 0 C11.33 1.65 11.66 3.3 12 5 C9.36 5 6.72 5 4 5 C4 4.34 4 3.68 4 3 C2.68 3 1.36 3 0 3 C0 2.01 0 1.02 0 0 Z " fill="#D7AC92" transform="translate(9,55)"/>
<path d="M0 0 C0 0.66 0 1.32 0 2 C0.99 1.67 1.98 1.34 3 1 C3.66 2.65 4.32 4.3 5 6 C2.69 5.34 0.38 4.68 -2 4 C-2 4.66 -2 5.32 -2 6 C-2.99 6.33 -3.98 6.66 -5 7 C-5.66 6.67 -6.32 6.34 -7 6 C-7.625 3.4375 -7.625 3.4375 -8 1 C-5.23735711 0.40267181 -2.83967231 0 0 0 Z " fill="#F3BDCD" transform="translate(34,15)"/>
<path d="M0 0 C0.66 0 1.32 0 2 0 C2.13277344 0.68707031 2.26554687 1.37414063 2.40234375 2.08203125 C2.57894531 2.98308594 2.75554688 3.88414063 2.9375 4.8125 C3.19853516 6.15248047 3.19853516 6.15248047 3.46484375 7.51953125 C3.97741153 10.11397171 3.97741153 10.11397171 5 13 C2.36 13 -0.28 13 -3 13 C-3.33 12.34 -3.66 11.68 -4 11 C-3.01 11 -2.02 11 -1 11 C0.16472754 7.50581737 -0.3917266 5.5736062 -1 2 C-0.67 1.34 -0.34 0.68 0 0 Z " fill="#E8A1B8" transform="translate(23,12)"/>
<path d="M0 0 C0.66 0 1.32 0 2 0 C2 0.66 2 1.32 2 2 C3.32 2 4.64 2 6 2 C6 2.99 6 3.98 6 5 C4.68 5 3.36 5 2 5 C2 8.63 2 12.26 2 16 C1.34 16 0.68 16 0 16 C0 10.72 0 5.44 0 0 Z " fill="#402928" transform="translate(0,7)"/>
<path d="M0 0 C2.3129482 2.3129482 2.49580975 3.47904875 3.125 6.625 C3.29257813 7.44226562 3.46015625 8.25953125 3.6328125 9.1015625 C3.81457031 10.04128906 3.81457031 10.04128906 4 11 C7.465 10.505 7.465 10.505 11 10 C10.34 11.98 9.68 13.96 9 16 C8.67 15.01 8.34 14.02 8 13 C7.236875 12.9175 6.47375 12.835 5.6875 12.75 C3 12 3 12 1.25 10.25 C-0.13202816 7.76234931 -0.71006039 5.82691117 -1 3 C-0.67 2.01 -0.34 1.02 0 0 Z " fill="#ECC1BC" transform="translate(11,37)"/>
<path d="M0 0 C0 1.98 0 3.96 0 6 C0.66 6 1.32 6 2 6 C2 6.66 2 7.32 2 8 C0.68 7.67 -0.64 7.34 -2 7 C-2.33 7.66 -2.66 8.32 -3 9 C-3 8.34 -3 7.68 -3 7 C-3.66 6.67 -4.32 6.34 -5 6 C-4.67 4.68 -4.34 3.36 -4 2 C-4.66 2 -5.32 2 -6 2 C-6 1.34 -6 0.68 -6 0 C-3.50907189 -1.24546405 -2.58919267 -0.7767578 0 0 Z " fill="#C24F70" transform="translate(35,31)"/>
<path d="M0 0 C3.3 0.33 6.6 0.66 10 1 C10 1.66 10 2.32 10 3 C10.66 3 11.32 3 12 3 C12 3.66 12 4.32 12 5 C9.36 4.34 6.72 3.68 4 3 C4 4.32 4 5.64 4 7 C4.99 7.33 5.98 7.66 7 8 C5.35 8 3.7 8 2 8 C1.34 5.36 0.68 2.72 0 0 Z " fill="#F1E1BB" transform="translate(19,24)"/>
<path d="M0 0 C0 3 0 3 -0.5625 6.3125 C-0.98426087 9.86734159 -0.76220752 12.52772132 0 16 C-2.86299506 13.13700494 -2.99421225 11.34147716 -3.0625 7.3125 C-3.041875 6.219375 -3.02125 5.12625 -3 4 C-4.65 3.67 -6.3 3.34 -8 3 C-7.67 2.34 -7.34 1.68 -7 1 C-4.67843403 0.59270772 -2.3431213 0.25561323 0 0 Z " fill="#8B5060" transform="translate(28,8)"/>
<path d="M0 0 C0.66 0 1.32 0 2 0 C2.33 1.98 2.66 3.96 3 6 C5.97 6.495 5.97 6.495 9 7 C9 7.66 9 8.32 9 9 C6.03 9 3.06 9 0 9 C0 6.03 0 3.06 0 0 Z " fill="#35201F" transform="translate(0,55)"/>
<path d="M0 0 C0.33 1.32 0.66 2.64 1 4 C1.99 4 2.98 4 4 4 C4 4.66 4 5.32 4 6 C2.25 7.125 2.25 7.125 0 8 C-2.1875 7.3125 -2.1875 7.3125 -4 6 C-4.33 5.01 -4.66 4.02 -5 3 C-3.68 3 -2.36 3 -1 3 C-0.67 2.01 -0.34 1.02 0 0 Z " fill="#B8506F" transform="translate(33,21)"/>
<path d="M0 0 C2.97 0 5.94 0 9 0 C7 2 7 2 4.375 2.125 C3.59125 2.08375 2.8075 2.0425 2 2 C2 4.64 2 7.28 2 10 C1.34 10 0.68 10 0 10 C0 6.7 0 3.4 0 0 Z " fill="#694B4A" transform="translate(10,10)"/>
<path d="M0 0 C1.98 0 3.96 0 6 0 C5.67 1.65 5.34 3.3 5 5 C4.01 4.67 3.02 4.34 2 4 C1.67 5.65 1.34 7.3 1 9 C-0.32 7.68 -1.64 6.36 -3 5 C-2.34 4.67 -1.68 4.34 -1 4 C-0.34786708 1.97536745 -0.34786708 1.97536745 0 0 Z " fill="#ECA1B7" transform="translate(39,39)"/>
<path d="M0 0 C2.475 0.495 2.475 0.495 5 1 C4.67 3.31 4.34 5.62 4 8 C2.68 7.67 1.36 7.34 0 7 C0 4.69 0 2.38 0 0 Z " fill="#C96282" transform="translate(39,29)"/>
<path d="M0 0 C0.99 0 1.98 0 3 0 C3 1.98 3 3.96 3 6 C1.02 6 -0.96 6 -3 6 C-3 5.01 -3 4.02 -3 3 C-2.01 3 -1.02 3 0 3 C0 2.01 0 1.02 0 0 Z " fill="#E2C1A8" transform="translate(58,55)"/>
<path d="M0 0 C0.99 0 1.98 0 3 0 C3 0.99 3 1.98 3 3 C3.99 3 4.98 3 6 3 C6 3.99 6 4.98 6 6 C4.02 6 2.04 6 0 6 C0 4.02 0 2.04 0 0 Z " fill="#E2C1A8" transform="translate(3,55)"/>
<path d="M0 0 C1.98 0 3.96 0 6 0 C6 1.98 6 3.96 6 6 C5.01 6 4.02 6 3 6 C3 5.01 3 4.02 3 3 C2.01 3 1.02 3 0 3 C0 2.01 0 1.02 0 0 Z " fill="#E3C1A8" transform="translate(55,3)"/>
<path d="M0 0 C1.98 0 3.96 0 6 0 C6 0.99 6 1.98 6 3 C5.01 3 4.02 3 3 3 C3 3.99 3 4.98 3 6 C2.01 6 1.02 6 0 6 C0 4.02 0 2.04 0 0 Z " fill="#E3C1A8" transform="translate(3,3)"/>
<path d="M0 0 C2.97 0.495 2.97 0.495 6 1 C6 1.99 6 2.98 6 4 C5.01 4 4.02 4 3 4 C3 5.98 3 7.96 3 10 C2.67 10 2.34 10 2 10 C2 8.02 2 6.04 2 4 C1.34 4 0.68 4 0 4 C0 2.68 0 1.36 0 0 Z " fill="#513835" transform="translate(0,51)"/>
<path d="M0 0 C1.65 0 3.3 0 5 0 C5 2.64 5 5.28 5 8 C4.01 7.67 3.02 7.34 2 7 C0.8125 3.4375 0.8125 3.4375 0 0 Z " fill="#D0A18A" transform="translate(47,12)"/>
<path d="M0 0 C0.33 0.99 0.66 1.98 1 3 C1.66 3 2.32 3 3 3 C3 4.32 3 5.64 3 7 C2.34 7 1.68 7 1 7 C1 7.66 1 8.32 1 9 C-0.32 9 -1.64 9 -3 9 C-3 8.01 -3 7.02 -3 6 C-2.01 6 -1.02 6 0 6 C0 4.02 0 2.04 0 0 Z " fill="#513735" transform="translate(61,3)"/>
<path d="M0 0 C0.99 0 1.98 0 3 0 C2.34 1.65 1.68 3.3 1 5 C0.34 5 -0.32 5 -1 5 C-1.33 5.66 -1.66 6.32 -2 7 C-2.99 6.67 -3.98 6.34 -5 6 C-4.34 4.68 -3.68 3.36 -3 2 C-2.34 2 -1.68 2 -1 2 C-0.67 1.34 -0.34 0.68 0 0 Z " fill="#F5CBD7" transform="translate(44,40)"/>
<path d="M0 0 C4.95 0.33 9.9 0.66 15 1 C13.68 2.32 12.36 3.64 11 5 C11 4.01 11 3.02 11 2 C10.06027344 2.03480469 10.06027344 2.03480469 9.1015625 2.0703125 C7.87566406 2.09738281 7.87566406 2.09738281 6.625 2.125 C5.81289063 2.14820313 5.00078125 2.17140625 4.1640625 2.1953125 C2 2 2 2 0 0 Z " fill="#BE8377" transform="translate(13,37)"/>
<path d="M0 0 C0.99 0 1.98 0 3 0 C3 1.32 3 2.64 3 4 C2.34 4 1.68 4 1 4 C0.67 4.66 0.34 5.32 0 6 C-2.31 5.34 -4.62 4.68 -7 4 C-6.67 3.01 -6.34 2.02 -6 1 C-5.67 1.66 -5.34 2.32 -5 3 C-2.47266765 3.65555119 -2.47266765 3.65555119 0 4 C0 2.68 0 1.36 0 0 Z " fill="#EEDDAC" transform="translate(28,33)"/>
<path d="M0 0 C0.33 0.66 0.66 1.32 1 2 C0.67 2.66 0.34 3.32 0 4 C-0.66 4 -1.32 4 -2 4 C-2.33 3.01 -2.66 2.02 -3 1 C-3.33 1.66 -3.66 2.32 -4 3 C-5.32 3 -6.64 3 -8 3 C-7.67 2.01 -7.34 1.02 -7 0 C-3.88407501 -1.03864166 -2.9737344 -1.09036928 0 0 Z " fill="#E37C9F" transform="translate(36,21)"/>
<path d="M0 0 C1.65 0 3.3 0 5 0 C4.34 1.98 3.68 3.96 3 6 C2.34 6 1.68 6 1 6 C0.67 6.66 0.34 7.32 0 8 C0 5.36 0 2.72 0 0 Z " fill="#BC887D" transform="translate(12,12)"/>
<path d="M0 0 C2.31 0.33 4.62 0.66 7 1 C6.40138258 3.35171131 5.73075648 5.6859378 5 8 C4.01 8.495 4.01 8.495 3 9 C3.66 7.02 4.32 5.04 5 3 C3.35 2.67 1.7 2.34 0 2 C0 1.34 0 0.68 0 0 Z " fill="#E498A1" transform="translate(39,27)"/>
<path d="M0 0 C1.32 0.33 2.64 0.66 4 1 C4 1.66 4 2.32 4 3 C4.66 3 5.32 3 6 3 C6 3.66 6 4.32 6 5 C5.01 5.33 4.02 5.66 3 6 C2.34 5.67 1.68 5.34 1 5 C0.375 2.4375 0.375 2.4375 0 0 Z " fill="#E9A5B5" transform="translate(26,16)"/>
<path d="M0 0 C0.99 0.33 1.98 0.66 3 1 C3.33 2.65 3.66 4.3 4 6 C1.69 5.34 -0.62 4.68 -3 4 C-2.67 3.34 -2.34 2.68 -2 2 C-1.34 2 -0.68 2 0 2 C0 1.34 0 0.68 0 0 Z " fill="#E488A5" transform="translate(29,37)"/>
<path d="M0 0 C2.475 0.495 2.475 0.495 5 1 C5 2.65 5 4.3 5 6 C2.5 4.6875 2.5 4.6875 0 3 C0 2.01 0 1.02 0 0 Z " fill="#EEB9C9" transform="translate(28,43)"/>
<path d="M0 0 C1.65 0.33 3.3 0.66 5 1 C5 1.99 5 2.98 5 4 C5.66 4.33 6.32 4.66 7 5 C6.01 5 5.02 5 4 5 C3.67 4.34 3.34 3.68 3 3 C1.35 3 -0.3 3 -2 3 C-1.34 2.01 -0.68 1.02 0 0 Z " fill="#EDB7C7" transform="translate(41,22)"/>
<path d="M0 0 C1.65 0 3.3 0 5 0 C5 1.98 5 3.96 5 6 C4.34 6 3.68 6 3 6 C2.67 5.01 2.34 4.02 2 3 C1.34 2.67 0.68 2.34 0 2 C0 1.34 0 0.68 0 0 Z " fill="#2F1D1C" transform="translate(59,0)"/>
<path d="M0 0 C2.4375 0.8125 2.4375 0.8125 5 2 C5.33 2.99 5.66 3.98 6 5 C6.99 5.33 7.98 5.66 9 6 C5 6 5 6 3.515625 4.6875 C2.34375 3.125 1.171875 1.5625 0 0 Z " fill="#E4A6B3" transform="translate(45,37)"/>
<path d="M0 0 C-2.90092502 1.93395001 -3.89674737 2.30131941 -7.1875 2.625 C-8.445625 2.74875 -9.70375 2.8725 -11 3 C-9 0 -9 0 -5.5 -0.75 C-2 -1 -2 -1 0 0 Z " fill="#A0636B" transform="translate(51,54)"/>
<path d="M0 0 C2.31 0.33 4.62 0.66 7 1 C6.67 2.32 6.34 3.64 6 5 C5.01 5 4.02 5 3 5 C3 4.01 3 3.02 3 2 C2.01 1.67 1.02 1.34 0 1 C0 0.67 0 0.34 0 0 Z " fill="#F1B5C8" transform="translate(20,42)"/>
<path d="M0 0 C2.64 0.33 5.28 0.66 8 1 C7.67 1.99 7.34 2.98 7 4 C4.97954558 3.39816251 2.97888961 2.72693904 1 2 C0.67 1.34 0.34 0.68 0 0 Z " fill="#EDCBB9" transform="translate(11,34)"/>
<path d="M0 0 C0.99 0 1.98 0 3 0 C3.33 0.99 3.66 1.98 4 3 C3.01 3.99 2.02 4.98 1 6 C0.34 5.67 -0.32 5.34 -1 5 C-0.67 3.35 -0.34 1.7 0 0 Z " fill="#F0B3C5" transform="translate(45,29)"/>
</svg>
